<svg xmlns="http://www.w3.org/2000/svg" version="1.1" xmlns:xlink="http://www.w3.org/1999/xlink" width="1024" height="1024"><svg enable-background="new 0 0 1024 1024" viewBox="0 0 1024 1024" xmlns="http://www.w3.org/2000/svg"><circle cx="512" cy="512" fill="#607d8b" r="512"></circle><path d="m705.7 606.4h-331.5c-13.1 0-23.7-10.6-23.7-23.7s10.6-23.7 23.7-23.7h247.2c32.6 0 61-22.2 68.9-53.8l39.1-153.7c1.8-7.1.2-14.6-4.3-20.4-4.7-5.9-11.9-9.3-19.4-9h-337.1c-10-28.3-36.7-47.3-66.8-47.4h-22.3c-13.1 0-23.7 10.6-23.7 23.7s10.6 23.7 23.7 23.7h22.3c11.1-.3 21 7.2 23.7 18l1.4 11.4 41 160.1c-39.2 1.8-69.6 35-67.8 74.2s35 69.6 74.2 67.8h4.3c-13.4 36.9 5.7 77.6 42.5 91 36.9 13.4 77.6-5.7 91-42.5 5.7-15.7 5.7-32.8 0-48.5h55.9c-13.4 36.9 5.7 77.6 42.5 91 36.9 13.4 77.6-5.7 91-42.5 5.7-15.7 5.7-32.8 0-48.5h4.3c13.1 0 23.7-10.6 23.7-23.7-.1-12.9-10.7-23.5-23.8-23.5zm-30.3-236.8-31 124.1c-2.7 10.8-12.5 18.3-23.7 18h-204.3l-35.5-142.1zm-230.1 331.5c-13.1 0-23.7-10.6-23.7-23.7s10.6-23.7 23.7-23.7 23.7 10.6 23.7 23.7-10.6 23.7-23.7 23.7zm189.4 0c-13.1 0-23.7-10.6-23.7-23.7s10.6-23.7 23.7-23.7 23.7 10.6 23.7 23.7-10.6 23.7-23.7 23.7z" fill="#fff"></path></svg><style>@media (prefers-color-scheme: light) { :root { filter: none; } }
@media (prefers-color-scheme: dark) { :root { filter: invert(100%); } }
</style></svg>